<svg width="90" height="90" viewBox="0 0 90 90" fill="none" xmlns="http://www.w3.org/2000/svg">
<path d="M45.0009 53.9479C49.4386 53.9479 53.0362 49.9044 53.0362 44.9165C53.0362 39.9286 49.4386 35.8851 45.0009 35.8851C40.5631 35.8851 36.9655 39.9286 36.9655 44.9165C36.9655 49.9044 40.5631 53.9479 45.0009 53.9479Z" fill="#00D8FF"/>
<path d="M45 28.7096C55.3837 28.7096 65.2476 30.355 72.7466 33.2566C81.075 36.4791 86.1552 41.2436 86.1552 44.9146C86.1552 48.825 80.6687 53.9016 71.7602 57.2192C64.668 59.8603 55.1791 61.2998 45 61.2998C34.3066 61.2998 24.7106 59.8883 17.7007 57.1952C13.3122 55.5093 9.68804 53.3183 7.20394 50.9272C4.97173 48.7787 3.84477 46.6455 3.84477 44.9146C3.84477 41.2313 8.7306 36.533 16.8794 33.3397C24.3815 30.4001 34.4869 28.7096 45 28.7096ZM45 24.3882C34.0784 24.3882 23.5499 26.1496 15.6137 29.2592C6.08519 32.9931 0 38.8447 0 44.9146C0 51.1838 6.53256 57.4716 16.4572 61.2843C23.9172 64.1503 33.9166 65.6211 45 65.6211C55.5629 65.6211 65.451 64.1211 72.9694 61.3212C83.2871 57.4789 90 51.2675 90 44.9146C90 38.8228 83.7185 32.9317 73.9981 29.1706C66.0715 26.1035 55.7886 24.3882 45 24.3882ZM32.4408 36.8641C37.6281 26.7542 43.8241 17.9721 49.8067 12.1202C56.4511 5.62116 62.6612 3.05497 65.4906 4.88885C68.5045 6.8423 69.6764 14.7206 67.7828 25.0515C66.2753 33.2762 62.6443 43.2343 57.5592 53.1452C52.2171 63.557 46.3354 72.1948 40.7577 77.6747C37.2659 81.1054 33.7667 83.5395 30.6828 84.7636C27.9117 85.8636 25.7046 85.8951 24.3705 85.0305C21.5316 83.1903 20.3514 76.0862 21.9612 66.5568C23.4432 57.7841 27.1885 47.1006 32.4408 36.8641ZM29.1102 34.7053C23.6539 45.3395 19.7517 56.4704 18.1839 65.7507C16.3015 76.8935 17.7715 85.7415 22.4498 88.7739C27.2818 91.9058 35.3914 88.6867 43.2881 80.9283C49.2239 75.0965 55.3529 66.0955 60.8898 55.3041C66.1667 45.0195 69.9503 34.6425 71.5485 25.9234C73.7416 13.9583 72.3077 4.31898 67.4113 1.14534C62.7161 -1.89785 55.0376 1.27514 47.2827 8.86044C40.9589 15.046 34.4998 24.2011 29.1102 34.7053ZM32.4528 53.1688C27.2505 43.0685 23.5755 32.6493 22.0526 23.9011C20.3612 14.1854 21.4846 6.85661 24.3113 5.01741C27.3223 3.05817 33.9803 5.85157 40.9977 12.8549C46.5846 18.4304 52.447 26.939 57.547 36.8406C62.9047 47.2422 66.6255 57.2834 68.064 65.4515C68.9646 70.5651 69.0933 75.1881 68.4967 78.8023C67.9607 82.05 66.8827 84.215 65.55 85.0822C62.7137 86.9276 56.6482 84.529 50.1069 78.2023C44.0849 72.3779 37.7203 63.3954 32.4528 53.1688ZM29.1254 55.3339C34.5976 65.9577 41.2287 75.3165 47.599 81.4778C55.2479 88.8757 62.8024 91.8632 67.4762 88.822C72.3035 85.6811 73.8723 76.1766 71.8356 64.6124C70.3048 55.9199 66.4274 45.4564 60.8745 34.6755C55.5822 24.4006 49.4731 15.534 43.5504 9.62349C35.423 1.51241 27.2767 -1.90544 22.385 1.27754C17.6943 4.32955 16.3053 13.3913 18.2794 24.7309C19.8891 33.9779 23.7202 44.8397 29.1254 55.3339Z" fill="#00D8FF"/>
</svg>
